<?xml version="1.0" ?><svg id="Layer_1" style="enable-background:new 0 0 64 64;" version="1.1" viewBox="0 0 64 64" xml:space="preserve" xmlns="http://www.w3.org/2000/svg" xmlns:xlink="http://www.w3.org/1999/xlink"><style type="text/css">
	.st0{fill:#FFC300;}
	.st1{fill:#D1A000;}
	.st2{fill:#CFD8DC;}
	.st3{fill:#B0BEC5;}
	.st4{fill:#34444C;}
	.st5{fill:#F72250;}
	.st6{fill:#81D4FA;}
	.st7{fill:#33E0A6;}
	.st8{fill:#8FEECE;}
	.st9{fill:#FFD766;}
	.st10{fill:#1976D2;}
	.st11{fill:#1E88E5;}
	.st12{fill:#ECEFF1;}
	.st13{fill:#90A4AE;}
	.st14{fill:#B3E5FC;}
	.st15{fill:#4FC3F7;}
	.st16{fill:#1565C0;}
	.st17{fill:#29B6F6;}
	.st18{fill:#202B30;}
	.st19{fill:#6B777C;}
	.st20{fill:#FAFAFA;}
	.st21{fill:#FFFFFF;}
	.st22{fill:#26A379;}
	.st23{fill:#18664C;}
	.st24{fill:#B4193B;}
	.st25{fill:#F95E7F;}
	.st26{fill:#711025;}
	.st27{fill:#78909C;}
	.st28{fill:#039BE5;}
	.st29{fill:#1B2428;}
	.st30{fill:#13191C;}
	.st31{fill:#FDD835;}
</style><g id="First_Aid_Kit"><g><g><g><path class="st10" d="M41.5,17.5h-20c-0.8,0-1.5-0.7-1.5-1.5V6.5c0-2.2,1.8-4,4-4h15c2.2,0,4,1.8,4,4V16      C43,16.8,42.3,17.5,41.5,17.5z M24,13.5h15v-6c0-0.6-0.4-1-1-1H25c-0.6,0-1,0.4-1,1V13.5z"/></g><path class="st6" d="M58.5,61.5h-53c-2.8,0-5-2.2-5-5v-38c0-2.8,2.2-5,5-5h53c2.8,0,5,2.2,5,5v38C63.5,59.3,61.3,61.5,58.5,61.5z     "/><path class="st14" d="M5.5,61.5h3c-2.8,0-5-2.2-5-5v-38c0-2.8,2.2-5,5-5h-3c-2.8,0-5,2.2-5,5v38C0.5,59.3,2.7,61.5,5.5,61.5z"/><path class="st15" d="M58.5,13.5h-3c2.8,0,5,2.2,5,5v38c0,2.8-2.2,5-5,5h3c2.8,0,5-2.2,5-5v-38C63.5,15.7,61.3,13.5,58.5,13.5z"/></g><g><circle class="st10" cx="32" cy="37.5" r="15"/><g><path class="st20" d="M40,34.5h-5v-5c0-0.6-0.4-1-1-1h-4c-0.6,0-1,0.4-1,1v5h-5c-0.6,0-1,0.4-1,1v4c0,0.6,0.4,1,1,1h5v5      c0,0.6,0.4,1,1,1h4c0.6,0,1-0.4,1-1v-5h5c0.6,0,1-0.4,1-1v-4C41,34.9,40.6,34.5,40,34.5z"/><g><path class="st12" d="M33,45.5c0,0.6-0.4,1-1,1h2c0.6,0,1-0.4,1-1v-5h-2V45.5z"/><path class="st12" d="M33,29.5v5h2v-5c0-0.6-0.4-1-1-1h-2C32.6,28.5,33,28.9,33,29.5z"/><path class="st12" d="M40,34.5h-2c0.6,0,1,0.4,1,1v4c0,0.6-0.4,1-1,1h2c0.6,0,1-0.4,1-1v-4C41,34.9,40.6,34.5,40,34.5z"/></g></g></g></g></g></svg>